<svg xmlns="http://www.w3.org/2000/svg" viewBox="0 0 32 32">
  <path fill="#25D366" d="M16 2.9C8.8 2.9 3 8.7 3 15.9c0 2.8.7 5.5 2.1 7.8L3 29l5.5-2c2.3 1.3 4.9 2 7.5 2 7.2 0 13-5.8 13-13S23.2 2.9 16 2.9zm0 23.5c-2.3 0-4.6-.6-6.6-1.8l-.5-.3-3.2 1.2 1.2-3.1-.3-.5c-1.2-2-1.9-4.2-1.9-6.5C4.7 9.5 9.9 4.4 16 4.4s11.3 5.1 11.3 11.5S22.1 26.4 16 26.4zm6.2-8.3c-.3-.2-2-1-2.3-1.1-.3-.1-.5-.2-.7.2-.2.3-.9 1.1-1.1 1.3-.2.2-.4.3-.7.1-1.4-.7-2.6-1.6-3.6-3-.3-.4.3-.5.8-1.6.1-.2 0-.4 0-.5-.1-.2-.7-1.7-1-2.3-.3-.6-.5-.5-.7-.5h-.6c-.2 0-.5.1-.7.3-.3.3-1 1-.9 2.4.1 1.4 1 2.8 1.1 3 .1.2 2 3.1 4.8 4.3.7.3 1.3.5 1.8.6.7.1 1.3.1 1.8.1.6-.1 1.9-.8 2.2-1.6.3-.8.3-1.4.2-1.6-.1-.1-.3-.2-.6-.3z"></path>
</svg>
